<?xml version="1.0" standalone="no"?>
<!DOCTYPE svg PUBLIC "-//W3C//DTD SVG 20010904//EN"
 "http://www.w3.org/TR/2001/REC-SVG-20010904/DTD/svg10.dtd">
<svg version="1.0" xmlns="http://www.w3.org/2000/svg"
 width="474.000000pt" height="474.000000pt" viewBox="0 0 474.000000 474.000000"
 preserveAspectRatio="xMidYMid meet">
<metadata>
Created by potrace 1.11, written by Peter Selinger 2001-2013
</metadata>
<g transform="translate(0.000000,474.000000) scale(0.100000,-0.100000)"
fill="#000000" stroke="none">
<path d="M4730 2370 l0 -850 -2357 -3 -2358 -2 2363 -3 2362 -2 0 855 c0 470
-2 855 -5 855 -3 0 -5 -382 -5 -850z"/>
<path d="M1485 3009 c-178 -24 -335 -64 -715 -182 -171 -53 -309 -85 -403 -93
-57 -5 -74 -11 -100 -35 -27 -24 -30 -30 -17 -39 27 -17 152 -11 255 14 55 13
128 27 161 30 105 11 255 53 436 120 244 91 298 101 548 101 223 0 323 -12
538 -65 172 -42 548 -158 596 -183 l41 -22 -175 -6 c-400 -15 -822 -6 -1012
21 -38 6 -149 28 -246 51 -178 41 -402 65 -402 43 0 -6 39 -24 88 -42 437
-160 1041 -198 2175 -137 462 25 618 -3 954 -170 175 -86 262 -147 297 -208
32 -55 33 -100 1 -154 -31 -56 -17 -55 33 2 67 76 64 146 -9 228 -107 123
-442 295 -697 360 -79 20 -105 21 -297 17 -115 -2 -286 -4 -380 -4 l-170 -1
-140 67 c-235 111 -587 223 -850 268 -137 24 -401 34 -510 19z"/>
<path d="M176 2555 c-3 -9 -6 -26 -6 -38 0 -12 -14 -53 -30 -92 -47 -109 -40
-187 23 -253 49 -51 103 -86 213 -135 113 -51 175 -63 218 -44 30 13 30 13 58
-44 35 -70 110 -142 186 -177 50 -24 69 -27 162 -27 93 0 112 3 161 26 67 32
132 88 170 147 18 29 28 38 32 28 11 -29 72 -36 195 -20 64 8 151 14 193 14
96 0 199 11 199 20 0 12 -71 37 -127 45 -31 4 -107 0 -194 -10 -78 -10 -165
-15 -192 -11 -30 3 -56 1 -64 -5 -9 -8 -8 1 3 36 26 73 16 214 -20 288 -74
154 -255 249 -418 219 -175 -33 -302 -161 -327 -332 -5 -37 -6 -87 -1 -115 4
-27 7 -51 5 -53 -1 -2 -18 6 -37 18 -20 11 -82 36 -138 55 -113 38 -133 49
-196 107 -68 63 -73 91 -33 210 31 92 32 101 18 126 -17 32 -44 40 -53 17z
m915 -108 c7 -10 -61 -156 -73 -157 -5 0 -8 32 -8 70 0 56 4 74 20 90 19 19
47 18 61 -3z m-113 -75 c3 -99 -12 -108 -40 -24 -22 65 -15 114 16 110 19 -3
21 -10 24 -86z m-103 40 c6 -4 21 -31 33 -61 37 -90 28 -104 -30 -43 -43 44
-62 78 -54 98 6 15 34 19 51 6z m310 -3 c11 -16 -89 -148 -102 -135 -9 8 13
75 37 114 20 32 52 43 65 21z m73 -61 c24 -24 10 -44 -56 -82 -37 -22 -69 -39
-72 -39 -16 4 -5 27 36 76 46 57 69 68 92 45z m-418 -53 c57 -74 43 -89 -33
-35 -52 38 -69 65 -50 83 17 18 44 2 83 -48z m-40 -71 c27 -20 50 -40 50 -45
0 -14 -34 -11 -87 7 -57 19 -78 37 -70 58 10 26 54 18 107 -20z m515 16 c0
-14 -75 -50 -137 -65 -49 -12 -32 18 30 53 59 33 107 39 107 12z m-528 -96
c35 -11 63 -22 63 -25 0 -10 -104 -21 -133 -14 -27 7 -44 36 -32 56 4 6 15 9
24 6 9 -2 44 -13 78 -23z m238 -14 c0 -18 -6 -26 -23 -28 -27 -4 -40 22 -22
44 19 22 45 13 45 -16z m308 14 c3 -3 3 -12 0 -20 -8 -21 -173 -20 -173 0 0
10 14 16 43 19 76 7 124 7 130 1z m-473 -63 c0 -4 -29 -24 -65 -45 -49 -28
-72 -36 -91 -32 -49 13 -25 39 61 67 76 25 95 27 95 10z m384 -15 c61 -15 82
-32 64 -53 -14 -18 -14 -18 -98 27 -82 43 -73 51 34 26z m-399 -91 c-56 -66
-73 -75 -91 -50 -18 25 -8 39 61 85 80 53 92 38 30 -35z m325 44 c54 -33 80
-60 80 -86 0 -36 -23 -27 -79 31 -69 74 -70 96 -1 55z m-236 -41 c-4 -13 -17
-47 -30 -75 -19 -43 -27 -53 -47 -53 -43 0 -40 28 9 91 48 61 82 79 68 37z
m204 -29 c48 -56 58 -109 22 -109 -16 0 -29 18 -55 76 -40 87 -39 84 -22 83 6
0 31 -23 55 -50z m-163 -61 c-5 -46 -12 -71 -22 -75 -7 -3 -17 -3 -20 1 -7 7
15 154 24 170 14 23 24 -32 18 -96z m88 22 c32 -78 30 -100 -7 -100 -33 0 -36
8 -45 95 -6 64 -5 75 9 75 9 0 26 -26 43 -70z"/>
<path d="M3156 2305 c-13 -10 -43 -15 -82 -15 -53 0 -67 -4 -93 -26 -30 -25
-41 -54 -21 -54 6 0 20 11 32 25 12 14 30 25 40 25 22 0 22 2 -3 -54 -13 -29
-30 -51 -45 -56 -13 -5 -24 -14 -24 -20 0 -16 76 -12 90 5 7 8 8 15 3 15 -5 0
2 24 16 54 21 45 32 56 56 60 34 7 75 32 75 47 0 13 -22 10 -44 -6z"/>
<path d="M1740 2283 c-24 -9 -50 -35 -50 -50 0 -21 20 -15 46 12 13 14 28 25
34 25 14 0 -40 -70 -81 -104 -25 -22 -33 -24 -49 -14 -15 10 -22 10 -32 0 -10
-10 -10 -15 2 -22 25 -16 55 -11 94 15 49 33 76 33 76 -1 0 -24 2 -25 33 -19
40 9 45 14 27 25 -14 9 -16 80 -4 123 5 14 -1 17 -38 16 -24 0 -50 -3 -58 -6z
m50 -73 c0 -14 -7 -20 -22 -20 -20 0 -21 1 -3 20 10 11 20 20 22 20 1 0 3 -9
3 -20z"/>
<path d="M2088 2270 c-7 -11 -18 -20 -25 -20 -7 0 -13 -4 -13 -10 0 -5 4 -10
9 -10 6 0 3 -16 -5 -35 -28 -68 -15 -89 41 -63 30 13 34 32 5 23 -24 -8 -24
-7 -5 39 10 24 22 36 35 36 10 0 22 5 25 10 3 6 -3 10 -15 10 -17 0 -20 4 -15
20 4 14 2 20 -9 20 -9 0 -21 -9 -28 -20z"/>
<path d="M2442 2270 c-61 -37 -81 -129 -31 -145 28 -9 109 4 109 17 0 7 -14 8
-39 4 -51 -8 -69 11 -51 54 14 35 54 70 79 70 18 0 53 -35 44 -44 -4 -3 0 -6
7 -6 8 0 27 12 42 27 15 15 28 22 28 16 0 -26 -40 -96 -61 -107 -12 -6 -24
-17 -27 -23 -5 -16 110 -18 139 -3 33 18 22 31 -22 24 l-41 -7 17 27 c10 16
26 26 41 26 12 0 26 5 29 10 4 6 -5 10 -19 10 -30 0 -32 8 -12 36 13 17 17 17
37 6 18 -12 23 -12 30 0 16 25 9 28 -60 28 -53 0 -74 -4 -94 -20 -25 -20 -25
-20 -20 0 5 18 0 20 -43 20 -31 0 -61 -7 -82 -20z"/>
<path d="M2767 2270 c-31 -24 -37 -53 -9 -43 9 4 23 15 30 25 25 35 31 18 10
-32 -13 -31 -30 -55 -46 -63 -44 -21 -39 -37 11 -37 45 0 86 24 53 32 -12 2
-11 7 5 27 l19 23 15 -36 c19 -45 37 -53 70 -32 32 21 32 38 0 30 -20 -5 -25
-2 -31 21 -5 20 -2 30 15 42 14 9 21 23 19 36 -3 20 -10 22 -69 25 -54 2 -70
-1 -92 -18z m123 -15 c0 -12 -28 -35 -44 -35 -3 0 0 11 6 25 12 27 38 34 38
10z"/>
<path d="M3320 2283 c-24 -9 -50 -35 -50 -50 0 -21 20 -15 46 12 13 14 28 25
34 25 14 0 -40 -70 -81 -104 -25 -22 -33 -24 -49 -14 -15 10 -22 10 -32 0 -10
-10 -10 -15 2 -22 25 -16 55 -11 94 15 49 33 76 33 76 -1 0 -24 2 -25 33 -19
l32 7 -20 -21 c-44 -49 33 -81 95 -39 24 17 41 42 62 92 15 38 28 73 28 78 0
4 -18 8 -39 8 -44 0 -96 -36 -112 -77 -15 -41 -34 -22 -31 33 2 27 5 57 8 67
5 14 -1 17 -38 16 -24 0 -50 -3 -58 -6z m50 -73 c0 -14 -7 -20 -22 -20 -20 0
-21 1 -3 20 10 11 20 20 22 20 1 0 3 -9 3 -20z m160 -10 c-27 -37 -63 -60 -53
-33 14 37 36 63 55 63 19 0 19 -1 -2 -30z m-24 -78 c-20 -38 -40 -54 -60 -46
-24 9 -15 26 30 51 21 13 40 23 42 23 1 0 -4 -13 -12 -28z"/>
<path d="M1873 2243 c-7 -2 -13 -11 -13 -19 0 -11 4 -12 20 -4 18 10 19 9 5
-25 -28 -65 -14 -91 35 -65 13 7 21 7 25 0 10 -16 41 -11 66 11 l24 21 -23 -5
c-20 -5 -22 -2 -16 16 4 12 13 34 21 50 13 26 13 27 -12 27 -14 0 -25 -6 -25
-12 -1 -14 -25 -45 -53 -67 -16 -13 -16 -11 -2 22 8 20 15 41 15 47 0 10 -45
13 -67 3z"/>
<path d="M2182 2225 c-50 -42 -51 -105 0 -105 53 0 116 68 103 110 -9 29 -66
26 -103 -5z m61 -1 c10 -10 -14 -64 -34 -75 -16 -8 -19 -6 -19 13 0 38 35 80
53 62z"/>
<path d="M3621 2219 c-64 -63 -28 -119 54 -85 44 19 41 33 -4 18 -16 -6 -32
-8 -35 -5 -12 13 -5 22 23 28 16 3 35 13 41 21 7 7 17 11 22 8 5 -3 18 2 30
13 l20 18 -17 -40 c-28 -66 -29 -75 -9 -75 11 0 27 15 39 37 11 20 31 43 44
52 l24 15 -17 -31 c-32 -63 -17 -87 38 -62 20 9 29 9 41 -1 19 -16 78 -6 96
17 13 15 11 16 -16 9 -16 -4 -34 -8 -40 -9 -15 -3 -7 44 12 65 17 19 43 24 43
8 0 -5 13 -8 30 -6 28 3 29 2 32 -43 3 -40 6 -46 25 -45 17 0 20 -3 13 -16
-13 -24 -38 -43 -49 -36 -12 8 -41 -3 -41 -16 0 -17 79 -2 102 19 20 18 88
143 88 163 0 27 -38 5 -65 -38 l-30 -47 -3 48 c-3 41 -6 47 -26 47 -12 0 -27
-5 -34 -12 -9 -9 -12 -9 -12 0 0 7 -14 12 -34 12 -37 0 -90 -37 -101 -69 -3
-11 -14 -21 -25 -24 -18 -5 -19 -3 -5 30 8 20 15 42 15 49 0 17 -51 19 -68 2
-9 -9 -12 -9 -12 0 0 17 -41 15 -68 -4 -20 -14 -22 -14 -22 0 0 30 -65 20 -99
-15z m59 2 c0 -5 -7 -12 -16 -15 -24 -9 -28 -7 -14 9 14 17 30 20 30 6z"/>
</g>
</svg>
